#N canvas 206 107 1100 647 12;
#N canvas 0 50 450 250 (subpatch) 0;
#X array audio-data 3.52282e+06 float 2;
#X coords 0 1 3.52282e+06 -1 200 140 1;
#X restore 754 288 graph;
#X msg 146 92 read -resize \$1 audio-data;
#X obj 146 117 soundfiler;
#X floatatom 163 139 14 0 0 0 - - - 0;
#X obj 163 170 s sampleSize;
#X floatatom 186 220 5 0 0 0 - - - 0;
#X obj 145 492 *~;
#X obj 144 545 dac~;
#X obj 757 463 hsl 170 20 0 1 0 0 empty empty empty -2 -10 0 12 #fcfcfc #000000 #000000 0 1;
#X obj 146 316 phasor~;
#X obj 145 407 tabread4~ audio-data;
#X obj 342 439 vsl 30 50 0 5 0 0 empty empty empty 0 -9 0 12 #fcfcfc #000000 #000000 0 1;
#X obj 27 62 tgl 20 0 empty empty empty 0 -10 0 12 #fcfcfc #000000 #000000 0 1;
#X msg 27 91 \; pd dsp \$1;
#X obj 182 341 r sampleSize;
#X obj 146 360 *~;
#X obj 146 200 expr 24000 / $f1;
#X floatatom 397 298 11 0 0 0 - - - 0;
#X msg 368 210 0;
#X obj 754 435 r cursor;
#X msg 756 69 listen 9000;
#X floatatom 756 123 5 0 0 0 - - - 0;
#X obj 756 42 loadbang;
#X text 726 10 OSC RECEIVER --------------------;
#X floatatom 342 497 5 0 0 0 - - - 0;
#X obj 27 36 loadbang;
#N canvas 1234 447 553 269 osc 0;
#X obj 18 38 netreceive -u -b;
#X obj 18 63 oscparse;
#X obj 18 88 list trim;
#X floatatom 18 145 5 0 0 0 - - - 0;
#X obj 18 173 outlet;
#X obj 18 11 inlet;
#X obj 115 115 route filename;
#X obj 115 145 outlet;
#X obj 18 116 route speed;
#X obj 224 146 outlet;
#X obj 224 116 route position;
#X obj 358 135 print;
#X obj 358 111 route filenametxt;
#X obj 432 72 route reset;
#X obj 432 96 print;
#X connect 0 0 1 0;
#X connect 1 0 2 0;
#X connect 2 0 6 0;
#X connect 2 0 8 0;
#X connect 2 0 10 0;
#X connect 2 0 12 0;
#X connect 2 0 13 0;
#X connect 3 0 4 0;
#X connect 5 0 0 0;
#X connect 6 0 7 0;
#X connect 8 0 3 0;
#X connect 10 0 9 0;
#X connect 12 0 11 0;
#X connect 13 0 14 0;
#X restore 756 97 pd osc;
#X obj 873 117 symbol;
#X obj 873 137 s filename;
#X obj 146 34 r filename;
#X obj 368 137 r filename;
#X obj 186 244 s normalSpeed;
#X obj 455 230 hsl 75 20 -2 2 0 0 empty empty empty -2 -10 0 12 #fcfcfc #000000 #000000 0 1;
#N canvas 1320 584 304 196 normalizeValue 0;
#X floatatom 22 76 5 0 0 0 - - - 0;
#X floatatom 130 43 11 0 0 0 - - - 0;
#X obj 22 47 r normalSpeed;
#X obj 130 71 *;
#X obj 130 100 t b f;
#X obj 130 14 inlet;
#X obj 130 129 outlet;
#X connect 0 0 3 0;
#X connect 1 0 4 0;
#X connect 2 0 0 0;
#X connect 3 0 6 0;
#X connect 4 0 3 0;
#X connect 4 1 3 1;
#X connect 5 0 1 0;
#X restore 397 273 pd normalizeValue;
#X floatatom 543 250 5 0 0 0 - - - 0;
#X obj 873 168 print;
#N canvas 21 1777 313 300 cursor_indicator 0;
#X obj 122 75 tgl 20 0 empty empty empty 0 -10 0 12 #fcfcfc #000000 #000000 0 1;
#X obj 122 127 snapshot~;
#X floatatom 122 152 11 0 0 0 - - - 0;
#X obj 122 195 /;
#X floatatom 122 220 5 0 0 0 - - - 0;
#X obj 158 175 r sampleSize;
#X obj 122 244 s cursor;
#X obj 150 55 loadbang;
#X obj 64 108 inlet~;
#X obj 122 102 metro 10;
#X connect 0 0 9 0;
#X connect 1 0 2 0;
#X connect 2 0 3 0;
#X connect 3 0 4 0;
#X connect 4 0 6 0;
#X connect 5 0 3 1;
#X connect 7 0 0 0;
#X connect 8 0 1 0;
#X connect 9 0 1 0;
#X restore 179 379 pd cursor_indicator;
#X text 537 230 Set Speed;
#X msg 618 253 0;
#X text 649 254 Pause;
#X text 648 211 Normal;
#X msg 617 210 1;
#X obj 756 166 s target_speed;
#X obj 543 274 s actual_speed;
#X obj 728 117 bng 19 250 50 0 empty empty empty 17 7 0 10 #dfdfdf #000000 #000000;
#X text 395 210 Stop;
#X floatatom 451 105 10 0 0 0 - - - 0;
#X obj 451 78 r target_speed;
#X obj 368 187 delay 50;
#X obj 368 162 bng 20 250 50 0 empty empty empty 0 -10 0 12 #fcfcfc #000000 #000000;
#X obj 451 153 line 50 5;
#X msg 342 412 1;
#X obj 342 387 loadbang;
#X text 376 408 V o l u m e;
#X floatatom 970 117 5 0 0 0 - - - 0;
#X obj 1041 136 ==;
#X obj 1041 106 t b f;
#X floatatom 1041 82 5 0 0 0 - - - 0;
#X obj 1041 161 tgl 20 0 empty empty empty 0 -10 0 12 #fcfcfc #000000 #000000 0 1;
#X obj 970 181 spigot;
#X obj 970 206 bng 20 250 50 0 empty empty empty 0 -10 0 12 #fcfcfc #000000 #000000;
#X obj 970 231 s reset;
#X obj 309 190 r reset;
#X text 959 95 position;
#X text 868 91 filename;
#X obj 452 193 clip -2 2;
#X msg 146 61 open ../ollama/\$1;
#X msg 451 128 \$1 10;
#X text 110 9 thx to → https://www.youtube.com/watch?v=boX0v54SqtU;
#X connect 1 0 2 0;
#X connect 2 0 3 0;
#X connect 2 0 16 0;
#X connect 3 0 4 0;
#X connect 5 0 31 0;
#X connect 6 0 7 0;
#X connect 6 0 7 1;
#X connect 9 0 15 0;
#X connect 10 0 6 0;
#X connect 11 0 6 1;
#X connect 11 0 24 0;
#X connect 12 0 13 0;
#X connect 14 0 15 1;
#X connect 15 0 10 0;
#X connect 15 0 36 0;
#X connect 16 0 5 0;
#X connect 16 0 9 0;
#X connect 17 0 9 0;
#X connect 18 0 9 1;
#X connect 18 0 32 0;
#X connect 19 0 8 0;
#X connect 20 0 26 0;
#X connect 21 0 42 0;
#X connect 22 0 20 0;
#X connect 25 0 12 0;
#X connect 26 0 21 0;
#X connect 26 0 44 0;
#X connect 26 1 27 0;
#X connect 26 2 54 0;
#X connect 27 0 28 0;
#X connect 27 0 35 0;
#X connect 29 0 66 0;
#X connect 30 0 49 0;
#X connect 32 0 33 0;
#X connect 32 0 34 0;
#X connect 33 0 17 0;
#X connect 34 0 43 0;
#X connect 38 0 33 0;
#X connect 46 0 67 0;
#X connect 47 0 46 0;
#X connect 48 0 18 0;
#X connect 49 0 48 0;
#X connect 50 0 65 0;
#X connect 51 0 11 0;
#X connect 52 0 51 0;
#X connect 54 0 55 0;
#X connect 54 0 59 0;
#X connect 55 0 58 0;
#X connect 56 0 55 0;
#X connect 56 1 55 1;
#X connect 57 0 56 0;
#X connect 58 0 59 1;
#X connect 59 0 60 0;
#X connect 60 0 61 0;
#X connect 62 0 18 0;
#X connect 65 0 32 0;
#X connect 66 0 1 0;
#X connect 67 0 50 0;
